<svg width="155" height="83" viewBox="0 0 155 83" fill="none" xmlns="http://www.w3.org/2000/svg">
<path d="M154.5 36V48C154.5 50.4853 152.485 52.5 150 52.5H142.5V31.5H150C152.485 31.5 154.5 33.5147 154.5 36Z" fill="white" stroke="#8CC63C"/>
<rect x="147.5" y="0.5" width="82" height="147" rx="19.5" transform="rotate(90 147.5 0.5)" fill="white" stroke="#8CC53E"/>
<rect x="144.5" y="3.5" width="76" height="139" rx="14.5" transform="rotate(90 144.5 3.5)" fill="#FFFAFA" stroke="black"/>
<path d="M148 52L148 32" stroke="#FFFAFA"/>
<path d="M147 52L147 32" stroke="#FFFAFA"/>
<path d="M148 33C150.761 33 153 35.2386 153 38V46C153 48.7614 150.761 51 148 51H145V33H148Z" fill="black"/>
<path d="M129 8C134.523 8 139 12.4772 139 18V65C139 70.5228 134.523 75 129 75H112C110.343 75 109 73.6569 109 72V11C109 9.34315 110.343 8 112 8L129 8Z" fill="#8CC63E"/>
<path d="M105 8C106.657 8 108 9.34315 108 11V72C108 73.6569 106.657 75 105 75H89C87.3431 75 86 73.6569 86 72V11C86 9.34315 87.3431 8 89 8L105 8Z" fill="#8CC63E"/>
<path d="M82 8C83.6569 8 85 9.34315 85 11V72C85 73.6569 83.6569 75 82 75H66C64.3431 75 63 73.6569 63 72V11C63 9.34315 64.3431 8 66 8L82 8Z" fill="#8CC63E"/>
<path d="M59 8C60.6569 8 62 9.34315 62 11L62 72C62 73.6569 60.6569 75 59 75H43C41.3431 75 40 73.6569 40 72V11C40 9.34315 41.3431 8 43 8L59 8Z" fill="#8CC63E"/>
<path d="M19.0001 75C13.4772 75 9.00006 70.5228 9.00006 65L9.00006 18C9.00006 12.4771 13.4772 7.99997 19.0001 7.99997L36.0001 7.99997C37.6569 7.99997 39.0001 9.34312 39.0001 11L39.0001 72C39.0001 73.6568 37.6569 75 36.0001 75L19.0001 75Z" fill="#8CC63E"/>
<path d="M79 30L101 58.5L81.5 45L76 54.5L53 24L73.5 40.5L79 30Z" fill="white" stroke="white"/>
</svg>
